<svg xmlns="http://www.w3.org/2000/svg" width="24" height="24" viewBox="0 0 24 24">
  <defs>
    <style>
      .cls-1, .cls-2 {
        fill: #9169db;
        stroke: #9169db;
      }

      .cls-1 {
        opacity: 0;
      }

      .cls-2 {
        stroke-linecap: round;
        stroke-linejoin: round;
        stroke-miterlimit: 10;
        stroke-width: 1.5px;
      }

      .cls-3 {
        stroke: none;
      }

      .cls-4 {
        fill: none;
      }
    </style>
  </defs>
  <g id="icon-play" transform="translate(-521 -1108)">
    <g id="Прямоугольник_614" data-name="Прямоугольник 614" class="cls-1" transform="translate(521 1108)">
      <rect class="cls-3" width="24" height="24"/>
      <rect class="cls-4" x="0.5" y="0.5" width="23" height="23"/>
    </g>
    <path id="Stroke_3" data-name="Stroke 3" class="cls-2" d="M13.035,9.441A37.862,37.862,0,0,1,3.617,15.49,10.518,10.518,0,0,1,1.94,16a1.287,1.287,0,0,1-1.16-.642,11.864,11.864,0,0,1-.419-1.639A37.224,37.224,0,0,1,0,8,35.031,35.031,0,0,1,.4,2.091,13.972,13.972,0,0,1,.738.729,1.214,1.214,0,0,1,1.309.143,1.312,1.312,0,0,1,1.94,0,9.224,9.224,0,0,1,3.393.424,37.559,37.559,0,0,1,13.01,6.532c.172.174.644.64.722.735A1.137,1.137,0,0,1,13.76,8.7C13.677,8.806,13.194,9.282,13.035,9.441Z" transform="translate(526 1112)"/>
  </g>
</svg>
