<svg xmlns="http://www.w3.org/2000/svg" width="24" height="24"><path fill="#f9f9f9" d="M7.636 16c-1.397 0-2.528 1.07-2.528 2.39v1.902h13.784V18.39c0-1.32-1.131-2.39-2.528-2.39z"/><path fill="none" stroke="#9169db" stroke-linecap="round" stroke-linejoin="round" stroke-miterlimit="20" stroke-width="1.5" d="M7.636 16c-1.397 0-2.528 1.07-2.528 2.39v1.902h13.784V18.39c0-1.32-1.131-2.39-2.528-2.39z"/><path fill="#f9f9f9" d="M12 3c4.28 0 7.75 3.454 7.75 7.712 0 4.26-3.47 7.713-7.75 7.713-4.28 0-7.75-3.454-7.75-7.713C4.25 6.454 7.72 3 12 3z"/><path fill="none" stroke="#9169db" stroke-linecap="round" stroke-linejoin="round" stroke-miterlimit="20" stroke-width="1.5" d="M12 3c4.28 0 7.75 3.454 7.75 7.712 0 4.26-3.47 7.713-7.75 7.713-4.28 0-7.75-3.454-7.75-7.713C4.25 6.454 7.72 3 12 3z"/></svg>