<svg xmlns="http://www.w3.org/2000/svg" width="24" height="24"><path fill="#f9f9f9" d="M13.227 6.676v-.743c0-1.62-1.213-2.933-2.709-2.933H6.935C5.44 3 4.227 4.313 4.227 5.933v8.861c0 1.62 1.213 2.934 2.708 2.934h3.59c1.492 0 2.702-1.31 2.702-2.925v-.75z"/><path fill="none" stroke="#9169db" stroke-linecap="round" stroke-linejoin="round" stroke-miterlimit="20" stroke-width="1.5" d="M13.227 6.676v0-.743c0-1.62-1.213-2.933-2.709-2.933H6.935C5.44 3 4.227 4.313 4.227 5.933v8.861c0 1.62 1.213 2.934 2.708 2.934h3.59c1.492 0 2.702-1.31 2.702-2.925v-.75 0z"/><path fill="#f9f9f9" d="M19.773 9.95v-.744c0-1.62-1.213-2.933-2.709-2.933h-3.583c-1.496 0-2.709 1.313-2.709 2.933v8.861c0 1.62 1.213 2.934 2.709 2.934h3.59c1.492 0 2.702-1.31 2.702-2.925v-.75z"/><path fill="none" stroke="#9169db" stroke-linecap="round" stroke-linejoin="round" stroke-miterlimit="20" stroke-width="1.5" d="M19.773 9.95v0-.744c0-1.62-1.213-2.933-2.709-2.933h-3.583c-1.496 0-2.709 1.313-2.709 2.933v8.861c0 1.62 1.213 2.934 2.709 2.934h3.59c1.492 0 2.702-1.31 2.702-2.925v-.75 0z"/></svg>