<svg xmlns="http://www.w3.org/2000/svg" width="24" height="24"><path fill="#f9f9f9" d="M16.217 3H7.782C4.842 3 3 5.081 3 8.026v7.948C3 18.919 4.833 21 7.782 21h8.434C19.165 21 21 18.919 21 15.974V8.026C21 5.081 19.165 3 16.217 3z"/><path fill="none" stroke="#9169db" stroke-linecap="round" stroke-linejoin="round" stroke-miterlimit="20" stroke-width="1.5" d="M16.217 3H7.782C4.842 3 3 5.081 3 8.026v7.948C3 18.919 4.833 21 7.782 21h8.434C19.165 21 21 18.919 21 15.974V8.026C21 5.081 19.165 3 16.217 3z"/><path fill="#f9f9f9" d="M15.3 13.963L12 11.995V7.752"/><path fill="none" stroke="#9169db" stroke-linecap="round" stroke-linejoin="round" stroke-miterlimit="20" stroke-width="1.5" d="M15.3 13.963v0L12 11.995v0-4.243 0"/></svg>