<svg xmlns="http://www.w3.org/2000/svg" width="16" height="16"><path fill="#e2daf1" d="M8.6.87l1.95 3.911a.672.672 0 00.505.367l4.366.629a.672.672 0 01.445.257.645.645 0 01-.072.866L12.63 9.951a.639.639 0 00-.19.589l.757 4.305a.66.66 0 01-.549.748c-.148.023-.3 0-.434-.067l-3.888-2.032a.655.655 0 00-.625 0l-3.917 2.043a.685.685 0 01-.907-.277.666.666 0 01-.068-.42l.758-4.305a.66.66 0 00-.19-.587L.194 6.898a.658.658 0 01-.002-.934l.002-.003a.767.767 0 01.381-.186l4.367-.63a.684.684 0 00.505-.367L7.396.87a.662.662 0 01.386-.336.674.674 0 01.513.037.69.69 0 01.305.3z"/></svg>