<svg xmlns="http://www.w3.org/2000/svg" width="24" height="24" viewBox="0 0 24 24"><defs><clipPath id="dfqca"><path fill="#fff" d="M1 24a1 1 0 0 1-1-1V1a1 1 0 0 1 1-1h22a1 1 0 0 1 1 1v22a1 1 0 0 1-1 1z"/></clipPath><clipPath id="dfqcb"><path d="M1 24a1 1 0 0 1-1-1V1a1 1 0 0 1 1-1h22a1 1 0 0 1 1 1v22a1 1 0 0 1-1 1z"/></clipPath></defs><g><g><g><g><path fill="#f7f7fc" d="M1 24a1 1 0 0 1-1-1V1a1 1 0 0 1 1-1h22a1 1 0 0 1 1 1v22a1 1 0 0 1-1 1z"/><path fill="none" stroke="#8c8ea1" stroke-miterlimit="20" stroke-width="2" d="M1 24a1 1 0 0 1-1-1V1a1 1 0 0 1 1-1h22a1 1 0 0 1 1 1v22a1 1 0 0 1-1 1z" clip-path="url(&quot;#dfqca&quot;)"/></g><g clip-path="url(#dfqcb)"><g><path fill="#fff" d="M-.511-.511H24.51V24.51H-.51z"/></g><g><path fill="#5631d6" d="M-.511-.511h8.34V24.51H-.51z"/></g><g><path fill="#e95252" d="M16.17-.511h8.341V24.51h-8.34z"/></g></g></g></g></g></svg>