<svg xmlns="http://www.w3.org/2000/svg" width="20" height="20" viewBox="0 0 20 20"><g><g><path fill="none" stroke="#9169db" stroke-linecap="round" stroke-linejoin="round" stroke-miterlimit="20" stroke-width="1.5" d="M1.465 3.248C1.765 2.75 3.415.947 4.594 1c.352.03.663.242.916.49.581.567 2.244 2.712 2.338 3.164.23 1.107-1.09 1.745-.686 2.86 1.03 2.52 2.803 4.293 5.323 5.322 1.115.403 1.754-.916 2.86-.685.451.094 2.598 1.757 3.165 2.338.246.252.46.564.49.916.043 1.24-1.874 2.915-2.247 3.13-.882.63-2.032.619-3.434-.033C9.407 16.875 3.155 10.741 1.497 6.681.862 5.287.818 4.13 1.465 3.248z"/></g></g></svg>