<svg xmlns="http://www.w3.org/2000/svg" width="24" height="24" viewBox="0 0 24 24"><defs><clipPath id="f3kta"><path fill="#fff" d="M0 24V0h24v24z"/></clipPath></defs><g><g><path fill="#f9f9f9" d="M13.576 21c-4.962 0-8.999-4.037-8.999-8.998 0-4.965 4.037-9.002 9-9.002.655 0 1.31.07 1.94.21a8.989 8.989 0 0 0-3.158 6.844c0 4.194 2.971 7.891 7.063 8.79A8.998 8.998 0 0 1 13.576 21z"/><path fill="none" stroke="#9169db" stroke-linecap="round" stroke-linejoin="round" stroke-miterlimit="20" stroke-width="1.5" d="M13.576 21c-4.962 0-8.999-4.037-8.999-8.998 0-4.965 4.037-9.002 9-9.002.655 0 1.31.07 1.94.21a8.989 8.989 0 0 0-3.158 6.844c0 4.194 2.971 7.891 7.063 8.79A8.998 8.998 0 0 1 13.576 21z"/></g></g></svg>