<svg xmlns="http://www.w3.org/2000/svg" width="24" height="24" viewBox="0 0 24 24"><defs><clipPath id="lvh5a"><path fill="#fff" d="M0 24V0h24v24z"/></clipPath></defs><g><g transform="rotate(-180 12 18.5)"><path fill="#f9f9f9" d="M16.364 21c1.397 0 2.528-1.07 2.528-2.39v-1.902H5.108v1.902c0 1.32 1.131 2.39 2.528 2.39z"/><path fill="none" stroke="#9169db" stroke-linecap="round" stroke-linejoin="round" stroke-miterlimit="20" stroke-width="1.5" d="M16.364 21c1.397 0 2.528-1.07 2.528-2.39v-1.902H5.108v1.902c0 1.32 1.131 2.39 2.528 2.39z"/></g><g><path fill="#f9f9f9" d="M12 3c4.28 0 7.75 3.454 7.75 7.712 0 4.26-3.47 7.713-7.75 7.713-4.28 0-7.75-3.454-7.75-7.713C4.25 6.454 7.72 3 12 3z"/><path fill="none" stroke="#9169db" stroke-linecap="round" stroke-linejoin="round" stroke-miterlimit="20" stroke-width="1.5" d="M12 3c4.28 0 7.75 3.454 7.75 7.712 0 4.26-3.47 7.713-7.75 7.713-4.28 0-7.75-3.454-7.75-7.713C4.25 6.454 7.72 3 12 3z"/></g></g></svg>