<svg xmlns="http://www.w3.org/2000/svg" width="18" height="18" viewBox="0 0 18 18"><defs><clipPath id="i2psa"><path fill="#fff" d="M0 18V0h18v18zm9-1A8 8 0 1 0 9 1a8 8 0 0 0 0 16z"/></clipPath></defs><g><g><g><path fill="#fff" d="M1 9a8 8 0 1 1 16 0A8 8 0 0 1 1 9z"/><path fill="none" stroke="#9169db" stroke-miterlimit="20" stroke-width="2" d="M1 9a8 8 0 1 1 16 0A8 8 0 0 1 1 9z" clip-path="url(&quot;#i2psa&quot;)"/></g></g><g><g><path fill="#9169db" d="M5 9a4 4 0 1 1 8 0 4 4 0 0 1-8 0z"/></g></g></g></svg>