<svg xmlns="http://www.w3.org/2000/svg" width="18" height="18" viewBox="0 0 18 18"><defs><clipPath id="gekta"><path fill="#fff" d="M0 18V0h18v18zm16-1a1 1 0 0 0 1-1V2a1 1 0 0 0-1-1H2a1 1 0 0 0-1 1v14a1 1 0 0 0 1 1z"/></clipPath><clipPath id="gektb"><path fill="#fff" d="M1 17V1h16v16z"/></clipPath></defs><g><g><g><path fill="#9169db" d="M2 17a1 1 0 0 1-1-1V2a1 1 0 0 1 1-1h14a1 1 0 0 1 1 1v14a1 1 0 0 1-1 1z"/><path fill="none" stroke="#9169db" stroke-miterlimit="20" stroke-width="2" d="M2 17a1 1 0 0 1-1-1V2a1 1 0 0 1 1-1h14a1 1 0 0 1 1 1v14a1 1 0 0 1-1 1z" clip-path="url(&quot;#gekta&quot;)"/></g><g><g><path fill="none" stroke="#fff" stroke-linecap="round" stroke-linejoin="round" stroke-miterlimit="20" stroke-width="1.5" d="M13 6.25v0l-5.5 5.5v0L5 9.25v0"/></g></g></g></g></svg>