<svg xmlns="http://www.w3.org/2000/svg" width="18" height="18" viewBox="0 0 18 18"><defs><clipPath id="kztpa"><path fill="#fff" d="M0 18V0h18v18zm13-1a4 4 0 0 0 4-4V5a4 4 0 0 0-4-4H5a4 4 0 0 0-4 4v8a4 4 0 0 0 4 4z"/></clipPath></defs><g><g><path fill="#fff" d="M5 17a4 4 0 0 1-4-4V5a4 4 0 0 1 4-4h8a4 4 0 0 1 4 4v8a4 4 0 0 1-4 4z"/><path fill="none" stroke="#9b7fd0" stroke-miterlimit="20" stroke-width="2" d="M5 17a4 4 0 0 1-4-4V5a4 4 0 0 1 4-4h8a4 4 0 0 1 4 4v8a4 4 0 0 1-4 4z" clip-path="url(&quot;#kztpa&quot;)"/></g></g></svg>